<svg id="Layer_1" data-name="Layer 1" xmlns="http://www.w3.org/2000/svg" viewBox="0 0 13.69 22.86"><defs><style>.cls-1{fill:#292b2a;stroke:#f6f7f8;stroke-miterlimit:10;stroke-width:0.75px;}</style></defs><path class="cls-1" d="M16.05,19.75H13v-.62h2.36a.71.71,0,0,0,.71-.62.69.69,0,0,0-.69-.77H13V15.59a.71.71,0,0,0-.62-.71.69.69,0,0,0-.77.69v6.89a.69.69,0,0,0,.7.69h3a.71.71,0,0,0,.71-.62.69.69,0,0,0-.69-.77H13v-.62h3.07a.69.69,0,0,0,.69-.77A.7.7,0,0,0,16.05,19.75Z" transform="translate(-5.53 -0.67)"/><path class="cls-1" d="M12.38,1a6.48,6.48,0,1,0,6.47,6.47A6.48,6.48,0,0,0,12.38,1Zm0,11.56a5.09,5.09,0,1,1,5.08-5.09A5.09,5.09,0,0,1,12.38,12.6Z" transform="translate(-5.53 -0.67)"/></svg>